<?xml version="1.0" encoding="UTF-8"?>
<!DOCTYPE svg PUBLIC "-//W3C//DTD SVG 1.1//EN" "http://www.w3.org/Graphics/SVG/1.1/DTD/svg11.dtd">
<svg xmlns="http://www.w3.org/2000/svg" version="1.1" width="98px" height="98px" style="shape-rendering:geometricPrecision; text-rendering:geometricPrecision; image-rendering:optimizeQuality; fill-rule:evenodd; clip-rule:evenodd" xmlns:xlink="http://www.w3.org/1999/xlink">
<g><path style="opacity:0.979" fill="#27fcc8" d="M 39.5,-0.5 C 45.5,-0.5 51.5,-0.5 57.5,-0.5C 69.9125,2.69551 79.9125,9.36218 87.5,19.5C 89.6992,24.2489 91.5325,29.5823 93,35.5C 95.8382,55.6439 89.0049,71.4772 72.5,83C 47.4941,95.3714 26.6607,90.538 10,68.5C 2.71404,54.7021 1.54738,40.3687 6.5,25.5C 7.73685,24.0351 8.73685,22.3684 9.5,20.5C 10.4013,19.7095 11.0679,18.7095 11.5,17.5C 11.5,17.1667 11.5,16.8333 11.5,16.5C 12.8333,16.5 13.5,15.8333 13.5,14.5C 20.6809,6.99871 29.3476,1.99871 39.5,-0.5 Z M 46.5,7.5 C 69.559,9.22561 82.559,21.5589 85.5,44.5C 82.8333,66.5 70.5,78.8333 48.5,81.5C 26.5,78.8333 14.1667,66.5 11.5,44.5C 14.0202,23.3173 25.6869,10.984 46.5,7.5 Z"/></g>
<g><path style="opacity:0.005" fill="#000000" d="M 13.5,14.5 C 13.5,15.8333 12.8333,16.5 11.5,16.5C 11.8333,15.5 12.5,14.8333 13.5,14.5 Z"/></g>
<g><path style="opacity:0.007" fill="#000000" d="M 11.5,17.5 C 11.0679,18.7095 10.4013,19.7095 9.5,20.5C 9.28519,18.8212 9.95186,17.8212 11.5,17.5 Z"/></g>
<g><path style="opacity:0.012" fill="#747474" d="M 9.5,20.5 C 8.73685,22.3684 7.73685,24.0351 6.5,25.5C 6.16667,25.5 5.83333,25.5 5.5,25.5C 5.66957,22.796 7.00291,21.1293 9.5,20.5 Z"/></g>
<g><path style="opacity:0.114" fill="#0f1010" d="M 87.5,19.5 C 89.2225,21.2528 90.7225,23.2528 92,25.5C 94.7986,32.04 96.6319,38.7066 97.5,45.5C 97.5,46.1667 97.5,46.8333 97.5,47.5C 96.1667,48.1667 96.1667,48.8333 97.5,49.5C 97.5,49.8333 97.5,50.1667 97.5,50.5C 93.6331,78.5729 77.6331,94.2396 49.5,97.5C 48.5,97.5 47.5,97.5 46.5,97.5C 18.298,93.6326 2.63135,77.6326 -0.5,49.5C -0.5,48.8333 -0.5,48.1667 -0.5,47.5C 0.833333,46.5 0.833333,45.5 -0.5,44.5C -0.5,44.1667 -0.5,43.8333 -0.5,43.5C 0.575503,37.2006 2.5755,31.2006 5.5,25.5C 5.83333,25.5 6.16667,25.5 6.5,25.5C 1.54738,40.3687 2.71404,54.7021 10,68.5C 26.6607,90.538 47.4941,95.3714 72.5,83C 89.0049,71.4772 95.8382,55.6439 93,35.5C 91.5325,29.5823 89.6992,24.2489 87.5,19.5 Z"/></g>
</svg>
