<?xml version="1.0" encoding="UTF-8"?>
<!DOCTYPE svg PUBLIC "-//W3C//DTD SVG 1.1//EN" "http://www.w3.org/Graphics/SVG/1.1/DTD/svg11.dtd">
<svg xmlns="http://www.w3.org/2000/svg" version="1.1" width="70px" height="70px" style="shape-rendering:geometricPrecision; text-rendering:geometricPrecision; image-rendering:optimizeQuality; fill-rule:evenodd; clip-rule:evenodd" xmlns:xlink="http://www.w3.org/1999/xlink">
<g><path style="opacity:0.988" fill="#ffc125" d="M 2.5,59.5 C 11.135,52.3873 19.635,44.3873 28,35.5C 28.6917,34.5632 28.525,33.8966 27.5,33.5C 24.5,31.1667 21.8333,28.5 19.5,25.5C 14.5,18.5 8.5,12.5 1.5,7.5C 0.360603,1.4812 2.69394,-0.352131 8.5,2C 17,10.5 25.5,19 34,27.5C 43.4703,19.0306 52.637,10.1973 61.5,1C 66.5425,0.378749 68.3758,2.54542 67,7.5C 58.1667,16.3333 49.3333,25.1667 40.5,34C 49.3333,42.8333 58.1667,51.6667 67,60.5C 68.1667,66 66,68.1667 60.5,67C 51.6667,58.1667 42.8333,49.3333 34,40.5C 25.1667,49.3333 16.3333,58.1667 7.5,67C 3.5584,68.4177 1.22506,67.0843 0.5,63C 0.808222,61.5405 1.47489,60.3739 2.5,59.5 Z"/></g>
<g><path style="opacity:0.489" fill="#ffbf27" d="M 1.5,7.5 C 8.5,12.5 14.5,18.5 19.5,25.5C 13.1667,19.8333 7.16667,13.8333 1.5,7.5 Z"/></g>
<g><path style="opacity:0.812" fill="#ffc123" d="M 27.5,33.5 C 28.525,33.8966 28.6917,34.5632 28,35.5C 19.635,44.3873 11.135,52.3873 2.5,59.5C 10.8333,50.8333 19.1667,42.1667 27.5,33.5 Z"/></g>
</svg>
